HIERARCHY
ROOT Hips
{
	OFFSET 0.000000 0.000000 0.000000
	CHANNELS 6 Xposition Yposition Zposition Zrotation Yrotation Xrotation 
	JOINT LowerBack
	{
		OFFSET 0.000000 0.000000 0.000000
		CHANNELS 3 Zrotation Yrotation Xrotation
		JOINT Spine
		{
			OFFSET 0.028270 2.035590 -0.193380
			CHANNELS 3 Zrotation Yrotation Xrotation
			JOINT Spine1
			{
				OFFSET 0.056720 2.048850 -0.042750
				CHANNELS 3 Zrotation Yrotation Xrotation
				JOINT Neck
				{
					OFFSET 0.000000 0.000000 0.000000
					CHANNELS 3 Zrotation Yrotation Xrotation
					JOINT Neck1
					{
						OFFSET -0.054170 1.746240 0.172020
						CHANNELS 3 Zrotation Yrotation Xrotation
						JOINT Head
						{
							OFFSET 0.104070 1.761360 -0.123970
							CHANNELS 3 Zrotation Yrotation Xrotation
							End Site
							{
								OFFSET 0.000000 0.000000 0.000000
							}
						}
					}
				}
				JOINT LeftShoulder
				{
					OFFSET 0.000000 0.000000 0.000000
					CHANNELS 3 Zrotation Yrotation Xrotation
					JOINT LeftArm
					{
						OFFSET 3.362410 1.200890 -0.311210
						CHANNELS 3 Zrotation Yrotation Xrotation
						JOINT LeftForeArm
						{
							OFFSET 4.983000 -0.000000 -0.000000
							CHANNELS 3 Zrotation Yrotation Xrotation
							JOINT LeftHand
							{
								OFFSET 3.483560 -0.000000 -0.000000
								CHANNELS 3 Zrotation Yrotation Xrotation
								JOINT LeftFingerBase
								{
									OFFSET 0.000000 0.000000 0.000000
									CHANNELS 3 Zrotation Yrotation Xrotation
									JOINT LeftHandIndex1
									{
										OFFSET 0.715260 -0.000000 -0.000000
										CHANNELS 3 Zrotation Yrotation Xrotation
										End Site
										{
											OFFSET 0.000000 0.000000 0.000000
										}
									}
								}
								JOINT LThumb
								{
									OFFSET 0.000000 0.000000 0.000000
									CHANNELS 3 Zrotation Yrotation Xrotation
									End Site
									{
										OFFSET 0.000000 0.000000 0.000000
									}
								}
							}
						}
					}
				}
				JOINT RightShoulder
				{
					OFFSET 0.000000 0.000000 0.000000
					CHANNELS 3 Zrotation Yrotation Xrotation
					JOINT RightArm
					{
						OFFSET -3.136600 1.374050 -0.404650
						CHANNELS 3 Zrotation Yrotation Xrotation
						JOINT RightForeArm
						{
							OFFSET -5.241900 -0.000000 -0.000000
							CHANNELS 3 Zrotation Yrotation Xrotation
							JOINT RightHand
							{
								OFFSET -3.444170 -0.000000 -0.000000
								CHANNELS 3 Zrotation Yrotation Xrotation
								JOINT RightFingerBase
								{
									OFFSET 0.000000 0.000000 0.000000
									CHANNELS 3 Zrotation Yrotation Xrotation
									JOINT RightHandIndex1
									{
										OFFSET -0.622530 -0.000000 -0.000000
										CHANNELS 3 Zrotation Yrotation Xrotation
										End Site
										{
											OFFSET 0.000000 0.000000 0.000000
										}
									}
								}
								JOINT RThumb
								{
									OFFSET 0.000000 0.000000 0.000000
									CHANNELS 3 Zrotation Yrotation Xrotation
									End Site
									{
										OFFSET 0.000000 0.000000 0.000000
									}
								}
							}
						}
					}
				}
			}
		}
	}
}
}
MOTION
Frames: 15
Frame Time: 0.008333
4.912263 15.965229 0.837151 56.222558 -87.816625 2.607118 -0.979991 -1.722639 -9.167257 -0.912925 -1.994667 -5.113888 -5.415078 -2.182406 0.716277 10.296103 -13.268986 -12.910576 -1.629507 -0.019455 -1.919856 0.000000 0.000000 0.000000 1.880133 10.000888 3.727104 -54.814222 19.429375 22.886405 -1.485687 -69.328146 0.004984 -7.096228 5.408325 -0.329194 -0.041186 0.062364 -0.000000 0.000000 0.000000 0.000000 0.000000 0.000000 0.000000 10.927984 -8.385774 2.866095 64.171166 -5.869287 16.966557 1.349476 68.194555 0.030949 5.476167 4.833138 0.243523 0.039681 -0.268999 0.000000 0.000000 0.000000 0.000000 0.000000 0.000000 0.000000 
4.743182 15.842402 0.833193 57.661938 -87.898326 2.164513 -0.947851 -1.626346 -9.933396 -0.947328 -1.938314 -5.296006 -5.553132 -2.135525 0.746956 10.748429 -13.018441 -13.319628 -1.867877 -0.034996 -2.053256 0.000000 0.000000 0.000000 0.977575 10.933898 3.806556 -55.714400 18.193606 20.937396 -1.572209 -67.871311 0.003745 -5.965617 5.006583 -0.253986 -0.059044 0.072248 -0.000000 0.000000 0.000000 0.000000 0.000000 0.000000 0.000000 12.317359 -8.003820 2.869311 64.081758 -5.546139 14.937196 1.359397 68.085998 0.031247 5.123598 5.210606 0.244884 0.045635 -0.280604 0.000000 0.000000 0.000000 0.000000 0.000000 0.000000 0.000000 
4.574902 15.711855 0.831866 58.296894 -87.981888 2.257047 -0.828817 -1.538905 -10.580626 -0.963498 -1.896589 -5.449305 -5.706676 -2.102615 0.768277 11.151969 -12.642311 -13.690892 -2.134611 -0.054252 -2.176952 0.000000 0.000000 0.000000 -0.106510 11.835205 3.867354 -56.536295 16.750909 18.917466 -1.665632 -66.199267 0.002058 -4.759793 4.661610 -0.186691 -0.075898 0.080061 -0.000000 0.000000 0.000000 0.000000 0.000000 0.000000 0.000000 13.739747 -7.507764 2.871533 64.051606 -5.072405 12.761363 1.390068 67.502767 0.030285 4.535724 5.525294 0.228938 0.054203 -0.289795 0.000000 0.000000 0.000000 0.000000 0.000000 0.000000 0.000000 
4.407879 15.574653 0.832856 58.107051 -88.071471 2.895385 -0.630865 -1.460001 -11.112603 -0.959917 -1.868135 -5.574262 -5.864709 -2.082662 0.780415 11.471422 -12.128151 -13.999030 -2.419072 -0.076589 -2.282399 0.000000 0.000000 0.000000 -1.337199 12.669134 3.904916 -57.302074 15.137608 16.844657 -1.763628 -64.311090 0.000053 -3.536725 4.405942 -0.129125 -0.090409 0.085448 -0.000000 0.000000 0.000000 0.000000 0.000000 0.000000 0.000000 15.115411 -6.894929 2.873429 64.113905 -4.437769 10.491609 1.443408 66.343045 0.027870 3.713043 5.747209 0.193877 0.064754 -0.295677 0.000000 0.000000 0.000000 0.000000 0.000000 0.000000 0.000000 
4.242610 15.432235 0.835590 57.143581 -88.170107 4.030331 -0.369937 -1.387643 -11.541319 -0.937287 -1.849104 -5.672813 -6.015674 -2.072088 0.786704 11.679170 -11.483108 -14.225655 -2.708131 -0.100914 -2.362741 0.000000 0.000000 0.000000 -2.659701 13.407400 3.917443 -58.040107 13.381595 14.750221 -1.863358 -62.215284 -0.002108 -2.355450 4.265900 -0.081288 -0.101513 0.088448 -0.000000 0.000000 0.000000 0.000000 0.000000 0.000000 0.000000 16.368236 -6.183096 2.876011 64.295077 -3.626638 8.187087 1.517953 64.524778 0.023974 2.669601 5.864740 0.140892 0.076430 -0.297778 0.000000 0.000000 0.000000 0.000000 0.000000 0.000000 0.000000 
4.079232 15.286310 0.839304 55.559373 -88.275996 5.527794 -0.070750 -1.319380 -11.886551 -0.899364 -1.834537 -5.749781 -6.150170 -2.066208 0.787690 11.757890 -10.718439 -14.355625 -2.989824 -0.126128 -2.411971 0.000000 0.000000 0.000000 -4.007841 14.010645 3.907237 -58.778645 11.531894 12.664065 -1.960653 -59.949427 -0.004262 -1.273358 4.264850 -0.041584 -0.108499 0.089432 -0.000000 0.000000 0.000000 0.000000 0.000000 0.000000 0.000000 17.437880 -5.391614 2.882110 64.616341 -2.642602 5.885162 1.607148 62.008091 0.018772 1.442176 5.872570 0.074179 0.088122 -0.296020 0.000000 0.000000 0.000000 0.000000 0.000000 0.000000 0.000000 
3.917759 15.139041 0.843008 53.608964 -88.380228 7.164702 0.234236 -1.254833 -12.172161 -0.851980 -1.821048 -5.808922 -6.259913 -2.061660 0.791273 11.707111 -9.860734 -14.388827 -3.252450 -0.150896 -2.428809 0.000000 0.000000 0.000000 -5.299417 14.479886 3.880053 -59.545693 9.589095 10.654404 -2.053996 -57.543121 -0.006253 -0.333395 4.401381 -0.007508 -0.111415 0.089300 -0.000000 0.000000 0.000000 0.000000 0.000000 0.000000 0.000000 18.286532 -4.551947 2.892895 65.082351 -1.480029 3.621744 1.701699 58.796773 0.012744 0.102107 5.801825 0.001335 0.098615 -0.290877 0.000000 0.000000 0.000000 0.000000 0.000000 0.000000 0.000000 
3.757962 14.993050 0.845739 51.485608 -88.477125 8.785835 0.519420 -1.189421 -12.423903 -0.800960 -1.801719 -5.858170 -6.340759 -2.051610 0.791767 11.532377 -8.952074 -14.321973 -3.485385 -0.174111 -2.411059 0.000000 0.000000 0.000000 -6.468920 14.740949 3.842299 -60.361146 7.666041 8.740651 -2.135998 -55.111664 -0.008031 0.427959 4.706470 0.022544 -0.110349 0.088631 -0.000000 0.000000 0.000000 0.000000 0.000000 0.000000 0.000000 18.885865 -3.707203 2.917622 65.691416 -0.138409 1.438988 1.790396 54.936115 0.006236 -1.317343 5.644079 -0.072634 0.107605 -0.282762 0.000000 0.000000 0.000000 0.000000 0.000000 0.000000 0.000000 
3.599386 14.851531 0.846267 49.674878 -88.542884 9.953123 0.748305 -1.128800 -12.663738 -0.754283 -1.779578 -5.901266 -6.391527 -2.039006 0.794084 11.260150 -7.999402 -14.165302 -3.686086 -0.195225 -2.361864 0.000000 0.000000 0.000000 -7.433332 14.827491 3.805700 -61.238348 5.744732 7.028965 -2.208480 -52.714888 -0.009512 0.998750 5.140741 0.049485 -0.106453 0.088652 -0.000000 0.000000 0.000000 0.000000 0.000000 0.000000 0.000000 19.253679 -2.855338 2.955028 66.417349 1.335460 -0.665858 1.863846 50.571239 0.000132 -2.672978 5.469520 -0.138823 0.113849 -0.272860 0.000000 0.000000 0.000000 0.000000 0.000000 0.000000 0.000000 
3.441408 14.718113 0.843640 48.506230 -88.563643 10.382038 0.899304 -1.074269 -12.907691 -0.717505 -1.754248 -5.943566 -6.413464 -2.023391 0.791809 10.917526 -7.035720 -13.927072 -3.850809 -0.213712 -2.283962 0.000000 0.000000 0.000000 -8.139755 14.710230 3.778587 -62.178821 3.903844 5.583926 -2.268251 -50.488223 -0.010696 1.374934 5.697231 0.072925 -0.100673 0.089904 -0.000000 0.000000 0.000000 0.000000 0.000000 0.000000 0.000000 19.406426 -2.018907 3.008879 67.226345 2.905980 -2.641055 1.917745 45.884860 -0.005102 -3.891012 5.304005 -0.194022 0.117456 -0.262097 0.000000 0.000000 0.000000 0.000000 0.000000 0.000000 0.000000 
3.283429 14.596808 0.837185 48.214846 -88.527669 9.876784 0.957229 -1.028929 -13.161508 -0.695090 -1.727211 -5.988695 -6.409468 -2.006074 0.775734 10.532790 -6.075554 -13.616300 -3.979620 -0.229428 -2.181017 0.000000 0.000000 0.000000 -8.550385 14.385992 3.768998 -63.173095 2.198762 4.493413 -2.314508 -48.566936 -0.011594 1.565674 6.352147 0.091373 -0.094142 0.092700 -0.000000 0.000000 0.000000 0.000000 0.000000 0.000000 0.000000 19.372035 -1.195777 3.077537 68.079095 4.494502 -4.425153 1.952700 41.143087 -0.009095 -4.888586 5.173188 -0.236619 0.118595 -0.251507 0.000000 0.000000 0.000000 0.000000 0.000000 0.000000 0.000000 
3.124613 14.491718 0.826549 48.858876 -88.430339 8.414069 0.914528 -0.995494 -13.420996 -0.689806 -1.699294 -6.037839 -6.381609 -1.987495 0.737357 10.130607 -5.151785 -13.247746 -4.070587 -0.242029 -2.058531 0.000000 0.000000 0.000000 -8.652909 13.861595 3.780027 -64.198314 0.677023 3.847818 -2.346970 -47.090762 -0.012225 1.585532 7.074615 0.102636 -0.087894 0.096960 -0.000000 0.000000 0.000000 0.000000 0.000000 0.000000 0.000000 19.171691 -0.402177 3.155857 68.941431 6.027829 -5.881678 1.975023 36.648942 -0.011773 -5.624478 5.087970 -0.266805 0.117983 -0.241985 0.000000 0.000000 0.000000 0.000000 0.000000 0.000000 0.000000 
2.964241 14.407132 0.811684 50.334333 -88.272510 6.117866 0.770737 -0.975924 -13.672458 -0.703114 -1.670455 -6.093023 -6.332499 -1.967389 0.657830 9.722007 -4.260094 -12.823588 -4.125286 -0.251681 -1.918321 0.000000 0.000000 0.000000 -8.457070 13.126891 3.814338 -65.218512 -0.587934 3.708190 -2.364206 -46.208718 -0.012596 1.449780 7.828521 0.104018 -0.082649 0.102274 -0.000000 0.000000 0.000000 0.000000 0.000000 0.000000 0.000000 18.816163 0.385630 3.236591 69.803457 7.364962 -6.882464 1.990871 32.775563 -0.013229 -6.062733 5.023843 -0.283372 0.116065 -0.234236 0.000000 0.000000 0.000000 0.000000 0.000000 0.000000 0.000000 
2.801588 14.346978 0.792992 52.299279 -88.065671 3.343059 0.536882 -0.969445 -13.896613 -0.733041 -1.638807 -6.149863 -6.262152 -1.943103 0.537330 9.317599 -3.476341 -12.370942 -4.136450 -0.257538 -1.768850 0.000000 0.000000 0.000000 -7.997638 12.209908 3.862160 -66.190075 -1.583708 4.119557 -2.365190 -46.024690 -0.012717 1.177623 8.563522 0.093420 -0.078894 0.108096 -0.000000 0.000000 0.000000 0.000000 0.000000 0.000000 0.000000 18.299493 1.103511 3.309849 70.659012 8.477637 -7.160799 2.011314 29.812252 -0.013717 -6.239739 4.968732 -0.288117 0.114042 -0.228645 0.000000 0.000000 0.000000 0.000000 0.000000 0.000000 0.000000 
2.635933 14.314704 0.770995 54.403891 -87.822755 0.441117 0.230878 -0.974859 -14.071658 -0.776063 -1.603683 -6.202072 -6.173042 -1.913282 0.381348 8.925341 -2.873169 -11.916302 -4.100088 -0.259131 -1.618035 0.000000 0.000000 0.000000 -7.320679 11.150267 3.909166 -67.062904 -2.319132 5.074568 -2.347326 -46.601121 -0.012577 0.794256 9.218245 0.069943 -0.076720 0.113953 -0.000000 0.000000 0.000000 0.000000 0.000000 0.000000 0.000000 17.622602 1.687033 3.364721 71.499259 9.351146 -6.477198 2.043677 28.003242 -0.013474 -6.202903 4.910016 -0.282933 0.112796 -0.225346 0.000000 0.000000 0.000000 0.000000 0.000000 0.000000 0.000000 
